<svg xmlns="http://www.w3.org/2000/svg" viewBox="0 0 85 85" width="85" height="85">
	<style>
		tspan { white-space:pre }
		.shp0 { fill: #f5c506 } 
	</style>
	<g id="bnner+header">
		<g id="logo ">
			<path id="Shape 8 copy 3" class="shp0" d="M0.99 56L14.07 42.5L0.99 29L12.09 29L25.17 42.5L12.09 56L0.99 56ZM17.83 56L30.91 42.5L17.83 29L28.93 29L42.01 42.5L28.93 56L17.83 56ZM84.01 56L70.93 42.5L84.01 29L72.91 29L59.83 42.5L72.91 56L84.01 56ZM67.17 56L54.09 42.5L67.17 29L56.07 29L42.99 42.5L56.07 56L67.17 56ZM29 0.99L42.5 14.07L56 0.99L56 12.09L42.5 25.17L29 12.09L29 0.99ZM29 17.83L42.5 30.91L56 17.83L56 28.93L42.5 42.01L29 28.93L29 17.83ZM29 84.01L42.5 70.93L56 84.01L56 72.91L42.5 59.83L29 72.91L29 84.01ZM29 67.17L42.5 54.09L56 67.17L56 56.07L42.5 42.99L29 56.07L29 67.17Z" />
		</g>
	</g>
</svg>
<svg xmlns="http://www.w3.org/2000/svg" viewBox="0 0 79 80" width="79" height="80">
	<style>
		tspan { white-space:pre }
		.shp0 { opacity: 0.502;fill: #f5c506 } 
	</style>
	<g id="bnner+header">
		<g id="logo ">
			<path id="Shape 8 copy 4" class="shp0" d="M0.17 21.29L18.95 20.57L18.83 1.78L26.85 9.45L26.97 28.24L8.19 28.95L0.17 21.29ZM12.34 32.92L31.12 32.21L31 13.42L39.02 21.09L39.14 39.88L20.36 40.59L12.34 32.92ZM60.17 78.66L60.04 59.87L78.83 59.15L70.81 51.49L52.03 52.2L52.15 70.99L60.17 78.66ZM48 67.02L47.87 48.23L66.66 47.52L58.64 39.85L39.86 40.56L39.98 59.36L48 67.02ZM58.43 0.89L59.15 19.67L77.94 19.55L70.27 27.57L51.48 27.69L50.77 8.91L58.43 0.89ZM46.8 13.06L47.51 31.85L66.3 31.72L58.63 39.74L39.84 39.86L39.13 21.08L46.8 13.06ZM1.06 60.89L19.85 60.77L20.57 79.55L28.23 71.53L27.52 52.75L8.73 52.87L1.06 60.89ZM12.7 48.72L31.49 48.6L32.2 67.38L39.87 59.36L39.16 40.58L20.37 40.7L12.7 48.72Z" />
		</g>
	</g>
</svg>